<svg xmlns:xlink="http://www.w3.org/1999/xlink" version="1.1" xmlns="http://www.w3.org/2000/svg" width="32" height="32" viewBox="0 0 32 32">
  <path d="M10.959 31.651c-0.093 0-0.191-0.019-0.28-0.060-0.299-0.139-0.451-0.472-0.361-0.789l3.628-12.745-8.113 1.695c-0.217 0.039-0.437-0.024-0.596-0.169-0.159-0.151-0.233-0.369-0.199-0.588l2.456-15.415c0.044-0.268 0.248-0.481 0.512-0.544l11.433-2.667c0.237-0.060 0.492 0.025 0.653 0.211 0.164 0.188 0.208 0.448 0.12 0.677l-3.319 8.601 9.243-2.399c0.268-0.075 0.552 0.031 0.713 0.257 0.159 0.225 0.164 0.528 0.008 0.752l-15.341 22.881c-0.129 0.195-0.341 0.301-0.557 0.301zM14.889 16.513c0.184 0 0.361 0.076 0.487 0.213 0.159 0.169 0.219 0.412 0.153 0.636l-2.773 9.751 12.012-17.916-8.804 2.283c-0.245 0.057-0.5-0.019-0.665-0.2-0.167-0.191-0.212-0.451-0.125-0.685l3.336-8.639-9.775 2.277-2.233 14.021 8.247-1.721c0.049-0.015 0.095-0.020 0.141-0.020z" fill="#888888"></path>
</svg>