<svg xmlns:xlink="http://www.w3.org/1999/xlink" version="1.1" xmlns="http://www.w3.org/2000/svg" width="40" height="40" viewBox="0 0 32 32">
  <path d="M16 32c-8.823 0-16-7.177-16-16s7.177-16 16-16 16 7.177 16 16-7.177 16-16 16zM16 1.333c-8.087 0-14.667 6.58-14.667 14.667 0 8.085 6.58 14.667 14.667 14.667 8.085 0 14.667-6.581 14.667-14.667 0-8.087-6.581-14.667-14.667-14.667zM16 28c-6.28 0-12-5.401-12-11.333 0-0.368 0.299-0.667 0.667-0.667h22.667c0.367 0 0.667 0.299 0.667 0.667 0 5.932-5.72 11.333-12 11.333zM5.363 17.333c0.401 4.537 4.817 9.333 10.637 9.333s10.236-4.796 10.639-9.333h-21.276zM12.667 10.667c-0.368 0-0.667-0.299-0.667-0.667 0-1.103-0.897-2-2-2s-2 0.897-2 2c0 0.368-0.299 0.667-0.667 0.667s-0.667-0.299-0.667-0.667c0-1.837 1.496-3.333 3.333-3.333s3.333 1.496 3.333 3.333c0 0.368-0.299 0.667-0.667 0.667zM24.667 10.667c-0.367 0-0.667-0.299-0.667-0.667 0-1.103-0.897-2-2-2s-2 0.897-2 2c0 0.368-0.3 0.667-0.667 0.667s-0.667-0.299-0.667-0.667c0-1.837 1.496-3.333 3.333-3.333s3.333 1.496 3.333 3.333c0 0.368-0.3 0.667-0.667 0.667z" fill="#81D742"></path>
</svg>