<svg xmlns:xlink="http://www.w3.org/1999/xlink" version="1.1" xmlns="http://www.w3.org/2000/svg" width="40" height="40" viewBox="0 0 32 32">
  <path d="M24.667 12.667c-0.367 0-0.667-0.299-0.667-0.667 0-1.471-1.195-2.667-2.667-2.667s-2.667 1.196-2.667 2.667c0 0.368-0.3 0.667-0.667 0.667s-0.667-0.299-0.667-0.667c0-2.205 1.795-4 4-4s4 1.795 4 4c0 0.368-0.3 0.667-0.667 0.667zM14 12.667c-0.368 0-0.667-0.299-0.667-0.667 0-1.471-1.196-2.667-2.667-2.667s-2.667 1.196-2.667 2.667c0 0.368-0.299 0.667-0.667 0.667s-0.667-0.299-0.667-0.667c0-2.205 1.795-4 4-4s4 1.795 4 4c0 0.368-0.299 0.667-0.667 0.667zM0.667 21.388c-0.368 0-0.667-0.3-0.667-0.667 0-3.364 1.755-4.385 3.227-4.648 1.48-0.264 2.315 0.121 2.756 0.491 0.455 0.38 0.704 0.927 0.704 1.54 0 0.711-0.299 1.139-0.548 1.375-0.593 0.557-1.417 0.527-1.513 0.52-0.367-0.025-0.647-0.339-0.624-0.707 0.023-0.367 0.335-0.636 0.707-0.624 0.097 0.007 0.373-0.020 0.521-0.163 0.031-0.029 0.125-0.12 0.125-0.401 0-0.221-0.075-0.391-0.227-0.52-0.309-0.259-0.917-0.332-1.667-0.197-0.913 0.164-2.128 0.687-2.128 3.336 0 0.365-0.299 0.665-0.667 0.665zM22.543 27.995c-1.4 0-2.94-0.208-4.58-0.619-0.783-0.223-1.439-0.591-1.964-1.104-0.525 0.512-1.175 0.881-1.943 1.099-1.66 0.416-3.2 0.624-4.6 0.624-8.236 0-9.436-7.1-9.447-7.171-0.049-0.317 0.135-0.625 0.439-0.731 0.303-0.107 0.639 0.020 0.799 0.297 0.044 0.075 1.129 1.881 3.384 1.881 1.548 0 3.301-0.84 5.209-2.496 1.172-1.108 2.655-1.108 3.54-1.108 0.968 0 1.889 0.351 2.619 0.98 0.728-0.631 1.651-0.98 2.619-0.98 0.887 0 2.368 0 3.561 1.128 1.888 1.637 3.64 2.475 5.191 2.475 2.252 0 3.34-1.805 3.385-1.883 0.161-0.279 0.5-0.4 0.8-0.293 0.303 0.108 0.484 0.415 0.436 0.728-0.015 0.072-1.211 7.172-9.448 7.172zM16 24.573c0.22 0 0.425 0.108 0.549 0.289 0.411 0.599 1.001 1.012 1.757 1.227 1.513 0.377 2.943 0.573 4.235 0.573 4.076 0 6.139-1.925 7.167-3.604-0.639 0.319-1.417 0.547-2.341 0.547-1.877 0-3.924-0.948-6.084-2.821-0.827-0.784-1.889-0.784-2.665-0.784-0.809 0-1.576 0.372-2.1 1.021-0.252 0.312-0.784 0.312-1.036 0-0.525-0.649-1.289-1.021-2.1-1.021-0.776 0-1.839 0-2.645 0.763-2.179 1.892-4.225 2.84-6.104 2.84v0c-0.927 0-1.703-0.225-2.339-0.545 1.028 1.679 3.091 3.603 7.165 3.603 1.291 0 2.723-0.195 4.255-0.583 0.736-0.208 1.327-0.621 1.737-1.22 0.124-0.176 0.329-0.284 0.549-0.284zM31.333 21.388c-0.367 0-0.667-0.3-0.667-0.667 0-2.649-1.215-3.172-2.128-3.336-0.748-0.133-1.355-0.060-1.667 0.2-0.153 0.128-0.227 0.297-0.227 0.519 0 0.281 0.093 0.372 0.125 0.401 0.148 0.143 0.437 0.167 0.528 0.161 0.361 0.007 0.677 0.268 0.695 0.633 0.019 0.364-0.256 0.677-0.62 0.697-0.093 0.005-0.92 0.040-1.515-0.519-0.251-0.237-0.547-0.665-0.547-1.376 0-0.613 0.251-1.16 0.703-1.54 0.443-0.369 1.281-0.752 2.756-0.491 1.472 0.263 3.227 1.284 3.227 4.648 0.003 0.368-0.297 0.668-0.664 0.668zM0.929 19.509c-0.315 0-0.595-0.223-0.655-0.543-0.183-0.973-0.275-1.971-0.275-2.967 0-8.823 7.177-16 16-16s16 7.177 16 16c0 0.995-0.091 1.992-0.275 2.967-0.068 0.361-0.411 0.603-0.777 0.529-0.361-0.068-0.599-0.416-0.531-0.777 0.167-0.891 0.249-1.804 0.249-2.719 0-8.087-6.581-14.667-14.667-14.667-8.087 0-14.667 6.58-14.667 14.667 0 0.915 0.084 1.829 0.251 2.72 0.068 0.361-0.171 0.711-0.532 0.777-0.041 0.008-0.083 0.012-0.123 0.012zM16 32c-4.608 0-8.995-1.988-12.035-5.456-0.243-0.277-0.215-0.697 0.061-0.941s0.697-0.216 0.941 0.061c2.788 3.179 6.808 5.001 11.032 5.001 4.22 0 8.24-1.82 11.027-4.996 0.244-0.277 0.664-0.305 0.943-0.060 0.276 0.243 0.304 0.664 0.060 0.94-3.041 3.465-7.425 5.451-12.029 5.451z" fill="#81D742"></path>
</svg>