<svg xmlns:xlink="http://www.w3.org/1999/xlink" version="1.1" xmlns="http://www.w3.org/2000/svg" width="40" height="40" viewBox="0 0 32 32">
  <path d="M24 32.333c-0.071 0-0.14-0.012-0.211-0.033l-7.789-2.595-7.789 2.593c-0.203 0.063-0.427 0.033-0.601-0.089-0.173-0.125-0.276-0.328-0.276-0.543v-1.271c0-0.176 0.069-0.344 0.193-0.469l5.14-5.2v-6.896l-11.189 2.487c-0.195 0.044-0.403-0.004-0.561-0.133-0.157-0.124-0.249-0.317-0.249-0.517v-2.667c0-0.245 0.132-0.467 0.345-0.584l11.655-6.421v-6.995c0-1.839 1.496-3.333 3.333-3.333s3.333 1.495 3.333 3.333v6.995l11.655 6.421c0.212 0.117 0.345 0.339 0.345 0.584v2.667c0 0.2-0.091 0.393-0.251 0.521-0.156 0.128-0.364 0.172-0.563 0.133l-11.187-2.491v6.896l5.14 5.2c0.124 0.125 0.193 0.293 0.193 0.469v1.271c0 0.215-0.103 0.417-0.277 0.539-0.115 0.085-0.251 0.128-0.389 0.128zM16 28.333c0.071 0 0.143 0.012 0.211 0.033l7.123 2.372v-0.076l-5.14-5.196c-0.124-0.123-0.193-0.291-0.193-0.467v-8c0-0.2 0.091-0.393 0.251-0.521 0.156-0.129 0.364-0.172 0.56-0.133l11.191 2.487v-1.443l-11.655-6.419c-0.213-0.116-0.347-0.34-0.347-0.584v-7.388c0-1.103-0.897-2-2-2s-2 0.897-2 2v7.388c0 0.244-0.132 0.468-0.345 0.584l-11.655 6.423v1.443l11.189-2.487c0.195-0.044 0.404 0.004 0.561 0.133 0.157 0.124 0.249 0.317 0.249 0.517v8c0 0.176-0.069 0.344-0.193 0.469l-5.14 5.273 7.123-2.372c0.068-0.025 0.14-0.037 0.211-0.037z" fill="#81D742"></path>
</svg>