<svg xmlns:xlink="http://www.w3.org/1999/xlink" version="1.1" xmlns="http://www.w3.org/2000/svg" width="32" height="32" viewBox="0 0 32 32">
  <path d="M24.667 11.333c-0.367 0-0.667-0.299-0.667-0.667v-2.667c0-0.177 0.071-0.347 0.195-0.472 0.68-0.683 0.839-1.86 0.56-2.528-0.091-0.221-0.205-0.333-0.339-0.333-1.697 0-3.96-0.957-5.776-1.725-1.043-0.441-2.223-0.941-2.64-0.941s-1.599 0.5-2.64 0.941c-1.817 0.768-4.079 1.725-5.776 1.725-0.133 0-0.248 0.112-0.339 0.333-0.279 0.672-0.12 1.849 0.56 2.528 0.125 0.125 0.195 0.295 0.195 0.472v2.667c0 0.368-0.299 0.667-0.667 0.667s-0.667-0.299-0.667-0.667v-2.409c-0.932-1.112-1.077-2.749-0.655-3.768 0.304-0.735 0.877-1.156 1.571-1.156 1.427 0 3.551-0.899 5.256-1.62 1.58-0.669 2.504-1.047 3.16-1.047s1.583 0.377 3.16 1.047c1.705 0.721 3.829 1.62 5.256 1.62 0.695 0 1.267 0.421 1.571 1.156 0.424 1.021 0.279 2.656-0.653 3.768v2.409c0.001 0.368-0.299 0.667-0.665 0.667zM15.909 15.333c-0.003 0-0.004 0-0.007 0-4.563-0.001-9.188-1.441-9.236-4.656-0.005-0.367 0.288-0.672 0.657-0.677 0.384-0.015 0.671 0.288 0.676 0.656 0.032 2.195 4 3.343 7.903 3.344 0.001 0 0.004 0 0.007 0 3.897 0 8.056-1.171 8.091-3.344 0.005-0.364 0.303-0.656 0.667-0.656 0.003 0 0.007 0 0.011 0 0.368 0.005 0.663 0.307 0.656 0.677-0.049 3.199-4.919 4.656-9.424 4.656zM16 27.333c-5.719 0-9.333-6.932-9.333-8.667v-8c0-0.368 0.299-0.667 0.667-0.667s0.667 0.299 0.667 0.667v8c0 0.983 3.029 7.333 8 7.333 4.972 0 8-6.351 8-7.333v-8c0-0.368 0.3-0.667 0.667-0.667s0.667 0.299 0.667 0.667v8c0 1.735-3.615 8.667-9.333 8.667zM30.667 31.333c-0.367 0-0.667-0.299-0.667-0.667 0-3.307-2.693-6-6-6-0.367 0-0.667-0.299-0.667-0.667s0.3-0.667 0.667-0.667c4.044 0 7.333 3.291 7.333 7.333 0 0.368-0.3 0.667-0.667 0.667zM1.333 31.333c-0.368 0-0.667-0.299-0.667-0.667 0-4.043 3.289-7.333 7.333-7.333 0.368 0 0.667 0.299 0.667 0.667s-0.299 0.667-0.667 0.667c-3.308 0-6 2.693-6 6 0 0.368-0.299 0.667-0.667 0.667zM16.013 4.597l0.672 2.069h2.176l-1.761 1.469 0.673 2.164-1.76-1.232-1.761 1.301 0.672-2.245-1.76-1.457h2.176z" fill="#FFFFFF"></path>
</svg>